<svg xmlns="http://www.w3.org/2000/svg" viewBox="0 0 190 100" role="img" aria-label="US flag">
  <rect width="190" height="100" fill="#ffffff"/>
  <g fill="#b31942">
    <rect y="0" width="190" height="7.692"/>
    <rect y="15.384" width="190" height="7.692"/>
    <rect y="30.768" width="190" height="7.692"/>
    <rect y="46.152" width="190" height="7.692"/>
    <rect y="61.536" width="190" height="7.692"/>
    <rect y="76.92" width="190" height="7.692"/>
    <rect y="92.304" width="190" height="7.696"/>
  </g>
  <rect width="76" height="53.846" fill="#0a3161"/>
  <g fill="#ffffff">
    <circle cx="7" cy="5.5" r="1.2"/><circle cx="19" cy="5.5" r="1.2"/><circle cx="31" cy="5.5" r="1.2"/><circle cx="43" cy="5.5" r="1.2"/><circle cx="55" cy="5.5" r="1.2"/><circle cx="67" cy="5.5" r="1.2"/>
    <circle cx="13" cy="10.8" r="1.2"/><circle cx="25" cy="10.8" r="1.2"/><circle cx="37" cy="10.8" r="1.2"/><circle cx="49" cy="10.8" r="1.2"/><circle cx="61" cy="10.8" r="1.2"/>
    <circle cx="7" cy="16.1" r="1.2"/><circle cx="19" cy="16.1" r="1.2"/><circle cx="31" cy="16.1" r="1.2"/><circle cx="43" cy="16.1" r="1.2"/><circle cx="55" cy="16.1" r="1.2"/><circle cx="67" cy="16.1" r="1.2"/>
    <circle cx="13" cy="21.4" r="1.2"/><circle cx="25" cy="21.4" r="1.2"/><circle cx="37" cy="21.4" r="1.2"/><circle cx="49" cy="21.4" r="1.2"/><circle cx="61" cy="21.4" r="1.2"/>
    <circle cx="7" cy="26.7" r="1.2"/><circle cx="19" cy="26.7" r="1.2"/><circle cx="31" cy="26.7" r="1.2"/><circle cx="43" cy="26.7" r="1.2"/><circle cx="55" cy="26.7" r="1.2"/><circle cx="67" cy="26.7" r="1.2"/>
    <circle cx="13" cy="32" r="1.2"/><circle cx="25" cy="32" r="1.2"/><circle cx="37" cy="32" r="1.2"/><circle cx="49" cy="32" r="1.2"/><circle cx="61" cy="32" r="1.2"/>
    <circle cx="7" cy="37.3" r="1.2"/><circle cx="19" cy="37.3" r="1.2"/><circle cx="31" cy="37.3" r="1.2"/><circle cx="43" cy="37.3" r="1.2"/><circle cx="55" cy="37.3" r="1.2"/><circle cx="67" cy="37.3" r="1.2"/>
    <circle cx="13" cy="42.6" r="1.2"/><circle cx="25" cy="42.6" r="1.2"/><circle cx="37" cy="42.6" r="1.2"/><circle cx="49" cy="42.6" r="1.2"/><circle cx="61" cy="42.6" r="1.2"/>
    <circle cx="7" cy="47.9" r="1.2"/><circle cx="19" cy="47.9" r="1.2"/><circle cx="31" cy="47.9" r="1.2"/><circle cx="43" cy="47.9" r="1.2"/><circle cx="55" cy="47.9" r="1.2"/><circle cx="67" cy="47.9" r="1.2"/>
  </g>
</svg>
